<svg xmlns="http://www.w3.org/2000/svg" viewBox="0 0 1100 580" role="img" aria-labelledby="title desc"><title id="title">Average Elo of the top 50 rikishi by year</title><desc id="desc">Annual average of the mean Elo rating of the top 50 rikishi, 1958 to 2026.</desc><rect width="100%" height="100%" fill="white"/><text x="78" y="28" font-family="Arial,sans-serif" font-size="21" font-weight="bold" fill="#24292f">Average Elo of the top 50 rikishi by year</text><line x1="78" y1="469.57894736842104" x2="1072" y2="469.57894736842104" stroke="#e1e4e8" stroke-width="1"/><text x="68" y="473.57894736842104" text-anchor="end" font-family="Arial" font-size="12" fill="#57606a">2200</text><line x1="78" y1="372.7368421052632" x2="1072" y2="372.7368421052632" stroke="#e1e4e8" stroke-width="1"/><text x="68" y="376.7368421052632" text-anchor="end" font-family="Arial" font-size="12" fill="#57606a">2400</text><line x1="78" y1="275.89473684210526" x2="1072" y2="275.89473684210526" stroke="#e1e4e8" stroke-width="1"/><text x="68" y="279.89473684210526" text-anchor="end" font-family="Arial" font-size="12" fill="#57606a">2600</text><line x1="78" y1="179.05263157894734" x2="1072" y2="179.05263157894734" stroke="#e1e4e8" stroke-width="1"/><text x="68" y="183.05263157894734" text-anchor="end" font-family="Arial" font-size="12" fill="#57606a">2800</text><line x1="78" y1="82.21052631578948" x2="1072" y2="82.21052631578948" stroke="#e1e4e8" stroke-width="1"/><text x="68" y="86.21052631578948" text-anchor="end" font-family="Arial" font-size="12" fill="#57606a">3000</text><line x1="107.23529411764706" y1="58" x2="107.23529411764706" y2="518" stroke="#f0f2f4" stroke-width="1"/><text x="107.23529411764706" y="542" text-anchor="middle" font-family="Arial" font-size="12" fill="#57606a">1960</text><line x1="180.3235294117647" y1="58" x2="180.3235294117647" y2="518" stroke="#f0f2f4" stroke-width="1"/><text x="180.3235294117647" y="542" text-anchor="middle" font-family="Arial" font-size="12" fill="#57606a">1965</text><line x1="253.41176470588238" y1="58" x2="253.41176470588238" y2="518" stroke="#f0f2f4" stroke-width="1"/><text x="253.41176470588238" y="542" text-anchor="middle" font-family="Arial" font-size="12" fill="#57606a">1970</text><line x1="326.5" y1="58" x2="326.5" y2="518" stroke="#f0f2f4" stroke-width="1"/><text x="326.5" y="542" text-anchor="middle" font-family="Arial" font-size="12" fill="#57606a">1975</text><line x1="399.5882352941177" y1="58" x2="399.5882352941177" y2="518" stroke="#f0f2f4" stroke-width="1"/><text x="399.5882352941177" y="542" text-anchor="middle" font-family="Arial" font-size="12" fill="#57606a">1980</text><line x1="472.67647058823525" y1="58" x2="472.67647058823525" y2="518" stroke="#f0f2f4" stroke-width="1"/><text x="472.67647058823525" y="542" text-anchor="middle" font-family="Arial" font-size="12" fill="#57606a">1985</text><line x1="545.7647058823529" y1="58" x2="545.7647058823529" y2="518" stroke="#f0f2f4" stroke-width="1"/><text x="545.7647058823529" y="542" text-anchor="middle" font-family="Arial" font-size="12" fill="#57606a">1990</text><line x1="618.8529411764705" y1="58" x2="618.8529411764705" y2="518" stroke="#f0f2f4" stroke-width="1"/><text x="618.8529411764705" y="542" text-anchor="middle" font-family="Arial" font-size="12" fill="#57606a">1995</text><line x1="691.9411764705883" y1="58" x2="691.9411764705883" y2="518" stroke="#f0f2f4" stroke-width="1"/><text x="691.9411764705883" y="542" text-anchor="middle" font-family="Arial" font-size="12" fill="#57606a">2000</text><line x1="765.0294117647059" y1="58" x2="765.0294117647059" y2="518" stroke="#f0f2f4" stroke-width="1"/><text x="765.0294117647059" y="542" text-anchor="middle" font-family="Arial" font-size="12" fill="#57606a">2005</text><line x1="838.1176470588234" y1="58" x2="838.1176470588234" y2="518" stroke="#f0f2f4" stroke-width="1"/><text x="838.1176470588234" y="542" text-anchor="middle" font-family="Arial" font-size="12" fill="#57606a">2010</text><line x1="911.2058823529412" y1="58" x2="911.2058823529412" y2="518" stroke="#f0f2f4" stroke-width="1"/><text x="911.2058823529412" y="542" text-anchor="middle" font-family="Arial" font-size="12" fill="#57606a">2015</text><line x1="984.2941176470588" y1="58" x2="984.2941176470588" y2="518" stroke="#f0f2f4" stroke-width="1"/><text x="984.2941176470588" y="542" text-anchor="middle" font-family="Arial" font-size="12" fill="#57606a">2020</text><line x1="1057.3823529411766" y1="58" x2="1057.3823529411766" y2="518" stroke="#f0f2f4" stroke-width="1"/><text x="1057.3823529411766" y="542" text-anchor="middle" font-family="Arial" font-size="12" fill="#57606a">2025</text><line x1="78" y1="58" x2="78" y2="518" stroke="#57606a" stroke-width="1"/><line x1="78" y1="518" x2="1072" y2="518" stroke="#57606a" stroke-width="1"/><polyline points="78.0,379.2 92.6,353.4 107.2,342.0 121.9,340.8 136.5,351.3 151.1,368.0 165.7,378.4 180.3,391.1 194.9,410.2 209.6,426.4 224.2,440.7 238.8,452.0 253.4,458.3 268.0,463.4 282.6,473.2 297.3,475.0 311.9,477.5 326.5,485.6 341.1,483.4 355.7,486.9 370.4,479.4 385.0,466.4 399.6,455.6 414.2,454.4 428.8,451.9 443.4,445.6 458.1,437.3 472.7,437.9 487.3,432.4 501.9,437.3 516.5,447.8 531.1,450.1 545.8,433.3 560.4,410.2 575.0,391.3 589.6,365.1 604.2,344.6 618.9,323.6 633.5,301.3 648.1,280.7 662.7,265.6 677.3,243.8 691.9,218.3 706.6,206.9 721.2,183.8 735.8,170.8 750.4,158.3 765.0,147.5 779.6,137.2 794.3,131.5 808.9,126.2 823.5,124.7 838.1,124.0 852.7,134.9 867.4,138.2 882.0,127.8 896.6,125.2 911.2,120.3 925.8,114.9 940.4,113.3 955.1,113.1 969.7,110.1 984.3,109.2 998.9,114.6 1013.5,119.1 1028.1,109.2 1042.8,109.2 1057.4,110.9 1072.0,109.1" fill="none" stroke="#1f6feb" stroke-width="3"/><circle cx="165.7058823529412" cy="378.3867719298245" r="5" fill="#cf222e"/><text x="175.7058823529412" y="333.3867719298245" font-family="Arial" font-size="12" fill="#cf222e">Taihō era: 2,388</text><line x1="170.7058823529412" y1="375.3867719298245" x2="173.7058823529412" y2="338.3867719298245" stroke="#cf222e" stroke-width="1"/><circle cx="838.1176470588234" cy="124.0345333333334" r="5" fill="#1a7f37"/><text x="848.1176470588234" y="79.0345333333334" font-family="Arial" font-size="12" fill="#1a7f37">Hakuho era: 2,914</text><line x1="843.1176470588234" y1="121.0345333333334" x2="846.1176470588234" y2="84.0345333333334" stroke="#1a7f37" stroke-width="1"/><text x="78" y="564" font-family="Arial" font-size="11" fill="#57606a">Each year averages the top-50 mean at each available basho. Source: Sumo Elo replay, K=64.</text></svg>